<svg width="180" height="180" viewBox="0 0 180 180" fill="none" xmlns="http://www.w3.org/2000/svg">
<rect width="180" height="180" fill="#0A0A0A"/>
<path d="M40.6558 110.312C52.0636 110.312 61.3115 101.064 61.3115 89.6558C61.3115 78.2479 52.0636 69 40.6558 69C29.2479 69 20 78.2479 20 89.6558C20 101.064 29.2479 110.312 40.6558 110.312Z" stroke="#888888" stroke-width="6"/>
<path d="M40.6561 101.131C46.9938 101.131 52.1315 95.9934 52.1315 89.6557C52.1315 83.318 46.9938 78.1803 40.6561 78.1803C34.3184 78.1803 29.1807 83.318 29.1807 89.6557C29.1807 95.9934 34.3184 101.131 40.6561 101.131Z" fill="#888888"/>
<path d="M139.344 110.312C150.752 110.312 160 101.064 160 89.6558C160 78.2479 150.752 69 139.344 69C127.936 69 118.688 78.2479 118.688 89.6558C118.688 101.064 127.936 110.312 139.344 110.312Z" stroke="#03FC90" stroke-width="6"/>
<path d="M139.345 101.131C145.682 101.131 150.82 95.9934 150.82 89.6557C150.82 83.318 145.682 78.1803 139.345 78.1803C133.007 78.1803 127.869 83.318 127.869 89.6557C127.869 95.9934 133.007 101.131 139.345 101.131Z" fill="#03FC90"/>
<path d="M79.6722 87.3606H68.1968V91.9508H79.6722V87.3606Z" fill="#888888"/>
<path d="M95.7376 87.3606H84.2622V91.9508H95.7376V87.3606Z" fill="#888888"/>
<path d="M111.803 87.3606H100.328V91.9508H111.803V87.3606Z" fill="#888888"/>
</svg>

